# xmcd CD database file generated by Grip 2.91
# 
# Track frame offsets:
#       150
#       18587
#       36210
#       49857
#       66165
#       87212
#       106590
#       127362
#       144105
#       152380
#       166212
#       182052
#       196760
#       213360
# 
# Disc length: 3106 seconds
# 
# Revision: 3
# Processed by: cddbd v1.4b41PL1 Copyright (c) Steve Scherf et al.
# Submitted via: Grip 2.91
# 
DISCID=b50c200e
DTITLE=Keziah Jones - Liquid Sunshine
DYEAR=1900
DGENRE=
TTITLE0=Hello Heavenly
TTITLE1=Gods Glory
TTITLE2=Liquid Sunshine
TTITLE3=New Brighter Day
TTITLE4=Runaway
TTITLE5=Dont Forget
TTITLE6=Phased
TTITLE7=Im Known
TTITLE8=Sunshineshapedbulletholes
TTITLE9=Functional
TTITLE10=Stabilah
TTITLE11=Wounded Lovers Son
TTITLE12=Teardrops Will Fall
TTITLE13=Gangsta Lean
EXTD=
EXTT0=
EXTT1=
EXTT2=
EXTT3=
EXTT4=
EXTT5=
EXTT6=
EXTT7=
EXTT8=
EXTT9=
EXTT10=
EXTT11=
EXTT12=
EXTT13=
PLAYORDER=
